<?xml version="1.0" standalone="no"?>
<!DOCTYPE svg PUBLIC "-//W3C//DTD SVG 20010904//EN"
 "http://www.w3.org/TR/2001/REC-SVG-20010904/DTD/svg10.dtd">
<svg version="1.0" xmlns="http://www.w3.org/2000/svg"
 width="860.000000pt" height="423.000000pt" viewBox="0 0 860.000000 423.000000"
 preserveAspectRatio="xMidYMid meet">

<g transform="translate(0.000000,423.000000) scale(0.100000,-0.100000)"
fill="#000000" stroke="none">
<path d="M4221 3810 c-24 -5 -74 -23 -110 -40 -62 -29 -142 -107 -1393 -1358
-1250 -1250 -1329 -1331 -1358 -1393 -42 -90 -55 -172 -41 -251 25 -141 114
-262 235 -319 126 -59 237 -60 369 -3 58 26 133 98 1220 1183 l1157 1156 1158
-1156 c1086 -1085 1161 -1157 1219 -1183 132 -57 243 -56 369 3 121 57 210
178 235 319 14 76 1 156 -37 245 -26 58 -105 140 -1343 1380 -724 725 -1336
1331 -1360 1347 -92 62 -223 90 -320 70z"/>
</g>
</svg>
